<svg width="140" height="24" viewBox="0 0 140 24" fill="none" xmlns="http://www.w3.org/2000/svg">
  <!-- Light bulb icon -->
  <path d="M12 2C8.13 2 5 5.13 5 9c0 2.38 1.19 4.47 3 5.74V17c0 .55.45 1 1 1h6c.55 0 1-.45 1-1v-2.26c1.81-1.27 3-3.36 3-5.74 0-3.87-3.13-7-7-7z" fill="#6366F1"/>
  <path d="M9 21c0 .55.45 1 1 1h4c.55 0 1-.45 1-1v-1H9v1z" fill="#6366F1"/>
  <path d="M12 1c-.55 0-1 .45-1 1v1c0 .55.45 1 1 1s1-.45 1-1V2c0-.55-.45-1-1-1z" fill="#6366F1"/>
  
  <!-- IllumiChat text -->
  <path d="M25 19.3922V3.89432H30.6375L32.6242 9.94786C32.7351 10.3154 32.8634 10.7869 33.009 11.3624C33.1616 11.938 33.3106 12.5516 33.4563 13.2035C33.6088 13.8553 33.7475 14.4828 33.8723 15.0861C34.0041 15.6824 34.1115 16.1921 34.1947 16.6151H33.3938C33.4701 16.1921 33.5707 15.6824 33.6955 15.0861C33.8272 14.4897 33.9659 13.8657 34.1115 13.2139C34.2641 12.562 34.4132 11.9484 34.5588 11.3728C34.7044 10.7904 34.8327 10.3154 34.9436 9.94786L36.8991 3.89432H42.547V19.3922H38.8649V12.7042C38.8649 12.3575 38.8718 11.9172 38.8857 11.3832C38.8996 10.8493 38.9135 10.2703 38.9273 9.64623C38.9481 9.02215 38.9655 8.39114 38.9793 7.75319C39.0001 7.11525 39.0105 6.51891 39.0105 5.96418H39.3226C39.1839 6.56052 39.0313 7.18112 38.8649 7.826C38.6985 8.47088 38.5321 9.10189 38.3657 9.71903C38.2062 10.3362 38.0501 10.9013 37.8976 11.4144C37.752 11.9276 37.6272 12.3575 37.5232 12.7042L35.3077 19.3922H32.2601L30.0134 12.7042C29.9025 12.3575 29.7707 11.9276 29.6182 11.4144C29.4726 10.9013 29.3131 10.3396 29.1397 9.72944C28.9733 9.11229 28.8034 8.48128 28.6301 7.8364C28.4636 7.19153 28.3076 6.56745 28.162 5.96418H28.5261C28.533 6.51198 28.5434 7.10485 28.5573 7.74279C28.5711 8.3738 28.585 9.00481 28.5989 9.63582C28.6197 10.2599 28.637 10.8389 28.6509 11.3728C28.6647 11.9068 28.6717 12.3506 28.6717 12.7042V19.3922H25Z" fill="#09090B"/>
  <path d="M44.3684 19.3922V8.02363H47.988V19.3922H44.3684ZM46.1678 6.78588C45.627 6.78588 45.1728 6.61599 44.8053 6.27621C44.4377 5.92951 44.254 5.50652 44.254 5.00726C44.254 4.508 44.4377 4.08848 44.8053 3.74871C45.1728 3.40893 45.627 3.23904 46.1678 3.23904C46.7087 3.23904 47.1629 3.40893 47.5304 3.74871C47.8979 4.08155 48.0817 4.50107 48.0817 5.00726C48.0817 5.50652 47.8979 5.92951 47.5304 6.27621C47.1629 6.61599 46.7087 6.78588 46.1678 6.78588Z" fill="#09090B"/>
  <path d="M53.4075 13.0266V19.3922H49.7879V8.02363H53.2515L53.2931 10.9672H52.9811C53.2931 10.0241 53.7612 9.26831 54.3852 8.69971C55.0093 8.12417 55.8379 7.8364 56.8711 7.8364C57.6755 7.8364 58.3724 8.01669 58.9618 8.37727C59.5512 8.73091 60.0019 9.23364 60.314 9.88545C60.6329 10.5373 60.7924 11.307 60.7924 12.1945V19.3922H57.1832V12.9122C57.1832 12.2604 57.0202 11.7542 56.6943 11.3936C56.3753 11.0331 55.9212 10.8528 55.3318 10.8528C54.9504 10.8528 54.6141 10.936 54.3228 11.1024C54.0316 11.2688 53.8062 11.515 53.6467 11.8409C53.4873 12.1599 53.4075 12.5551 53.4075 13.0266Z" fill="#09090B"/>
  <path d="M69.1555 8.02363V10.7488H61.7081V8.02363H69.1555ZM63.3828 5.16328H66.992V15.783C66.992 16.1019 67.0613 16.3342 67.2 16.4799C67.3456 16.6255 67.5987 16.6983 67.9593 16.6983C68.1049 16.6983 68.2956 16.6879 68.5314 16.6671C68.7741 16.6463 68.9509 16.6289 69.0618 16.6151L69.3323 19.309C69.0133 19.3783 68.6631 19.4269 68.2817 19.4546C67.9073 19.4824 67.5363 19.4962 67.1688 19.4962C65.8999 19.4962 64.9499 19.2223 64.3189 18.6745C63.6948 18.1267 63.3828 17.3085 63.3828 16.2198V5.16328Z" fill="#09090B"/>
  <path d="M81.3674 19.6522C80.2232 19.6522 79.2282 19.4581 78.3822 19.0698C77.5432 18.6815 76.8879 18.1371 76.4164 17.4368C75.9448 16.7364 75.6917 15.9078 75.6571 14.9509H77.6333C77.668 15.5957 77.8483 16.1401 78.1742 16.5839C78.5001 17.0207 78.9404 17.3536 79.4951 17.5824C80.0499 17.8043 80.674 17.9152 81.3674 17.9152C82.0885 17.9152 82.7265 17.8008 83.2812 17.572C83.8429 17.3432 84.2832 17.0242 84.6022 16.6151C84.9281 16.199 85.091 15.7171 85.091 15.1693C85.091 14.6978 84.9662 14.306 84.7166 13.994C84.4669 13.675 84.1133 13.408 83.6556 13.1931C83.198 12.9781 82.6537 12.7874 82.0227 12.621L80.2024 12.1321C78.8225 11.7646 77.7824 11.255 77.082 10.6031C76.3886 9.94439 76.0419 9.09496 76.0419 8.05483C76.0419 7.17419 76.2708 6.4045 76.7284 5.74575C77.1861 5.087 77.8171 4.57734 78.6214 4.21676C79.4258 3.84925 80.3446 3.6655 81.3778 3.6655C82.4179 3.6655 83.3297 3.85272 84.1133 4.22717C84.9038 4.60161 85.5244 5.12167 85.9751 5.78736C86.4259 6.4461 86.6651 7.20886 86.6928 8.07563H84.7894C84.7131 7.22966 84.356 6.57438 83.7181 6.10979C83.087 5.63827 82.2861 5.40251 81.3154 5.40251C80.6497 5.40251 80.0603 5.51346 79.5471 5.73535C79.041 5.95724 78.6457 6.26235 78.3614 6.65066C78.0771 7.03204 77.935 7.46889 77.935 7.96122C77.935 8.44661 78.0771 8.84879 78.3614 9.16777C78.6457 9.4798 79.0167 9.73984 79.4743 9.94786C79.932 10.149 80.4243 10.3188 80.9513 10.4575L82.5843 10.884C83.1391 11.0227 83.6765 11.2064 84.1965 11.4352C84.7235 11.6571 85.195 11.9345 85.6111 12.2673C86.0341 12.5933 86.3704 12.9954 86.62 13.4739C86.8696 13.9454 86.9945 14.5036 86.9945 15.1485C86.9945 16.0153 86.7656 16.7884 86.308 17.468C85.8573 18.1475 85.2124 18.6815 84.3733 19.0698C83.5343 19.4581 82.5323 19.6522 81.3674 19.6522Z" fill="#09090B"/>
  <path d="M93.797 8.02363V9.59422H87.8062V8.02363H93.797ZM89.6368 5.16328H91.4674V16.5215C91.4674 16.9999 91.5645 17.3466 91.7587 17.5616C91.9597 17.7696 92.2995 17.8736 92.778 17.8736C92.91 17.8736 93.066 17.8667 93.246 17.8528C93.433 17.832 93.603 17.8147 93.756 17.8008L93.985 19.3506C93.797 19.3922 93.586 19.4234 93.35 19.4442C93.114 19.465 92.889 19.4754 92.674 19.4754C91.6962 19.4754 90.9439 19.2362 90.4169 18.7577C89.8968 18.2723 89.6368 17.5789 89.6368 16.6775V5.16328Z" fill="#09090B"/>
  <path d="M100.03 19.621C99.295 19.621 98.632 19.4893 98.043 19.2258C97.454 18.9554 96.985 18.5636 96.639 18.0504C96.292 17.5304 96.119 16.8959 96.119 16.147C96.119 15.4952 96.247 14.9647 96.504 14.5556C96.76 14.1465 97.103 13.8275 97.533 13.5987C97.963 13.3629 98.442 13.1861 98.969 13.0682C99.496 12.9504 100.033 12.8567 100.581 12.7874C101.274 12.6903 101.832 12.6175 102.255 12.569C102.678 12.5204 102.987 12.4407 103.181 12.3298C103.375 12.2119 103.472 12.0142 103.472 11.7369V11.6537C103.472 11.2029 103.379 10.8146 103.192 10.4887C103.011 10.1628 102.741 9.90972 102.38 9.72944C102.02 9.54915 101.572 9.459 101.038 9.459C100.505 9.459 100.04 9.54568 99.645 9.71903C99.256 9.89239 98.941 10.1177 98.698 10.3951C98.455 10.6655 98.293 10.9533 98.209 11.2584L96.41 10.9152C96.597 10.2218 96.92 9.64969 97.377 9.19897C97.835 8.74825 98.379 8.41194 99.01 8.19005C99.641 7.96815 100.307 7.85721 101.007 7.85721C101.5 7.85721 101.995 7.91961 102.495 8.04443C103.001 8.16925 103.465 8.38074 103.888 8.67891C104.311 8.97014 104.651 9.36886 104.908 9.87505C105.164 10.3743 105.293 11.0053 105.293 11.7681V19.3922H103.493V17.8216H103.4C103.268 18.0851 103.063 18.359 102.786 18.6433C102.509 18.9207 102.144 19.153 101.694 19.3402C101.243 19.5274 100.688 19.621 100.03 19.621Z" fill="#09090B"/>
  <path d="M100.321 17.9984C101.021 17.9984 101.604 17.8667 102.068 17.6032C102.54 17.3328 102.89 16.9861 103.119 16.5631C103.354 16.1331 103.472 15.6824 103.472 15.2109V13.6923C103.403 13.7686 103.254 13.8414 103.025 13.9107C102.796 13.9732 102.529 14.0321 102.224 14.0876C101.926 14.143 101.621 14.1916 101.309 14.2332C101.004 14.2748 100.733 14.3095 100.498 14.3372C100.054 14.3927 99.638 14.4897 99.249 14.6284C98.868 14.7602 98.56 14.9543 98.324 15.2109C98.088 15.4675 97.97 15.8107 97.97 16.2406C97.97 16.6151 98.067 16.934 98.261 17.1975C98.462 17.461 98.74 17.6621 99.093 17.8008C99.447 17.9326 99.856 17.9984 100.321 17.9984Z" fill="#09090B"/>
  <path d="M107.893 19.3922V8.02363H109.651V9.79184H109.745C109.953 9.20937 110.31 8.74131 110.816 8.38767C111.322 8.03403 111.919 7.85721 112.605 7.85721C112.758 7.85721 112.917 7.86414 113.084 7.87801C113.25 7.88494 113.382 7.89188 113.479 7.89881V9.73984C113.416 9.71903 113.278 9.69476 113.063 9.66703C112.855 9.63929 112.622 9.62542 112.366 9.62542C111.874 9.62542 111.426 9.7329 111.024 9.94786C110.622 10.1628 110.303 10.4714 110.067 10.8736C109.838 11.2758 109.724 11.7577 109.724 12.3194V19.3922H107.893Z" fill="#09090B"/>
  <path d="M119.122 8.02363V9.59422H113.13V8.02363H119.122ZM114.961 5.16328H116.792V16.5215C116.792 16.9999 116.889 17.3466 117.083 17.5616C117.284 17.7696 117.624 17.8736 118.102 17.8736C118.234 17.8736 118.39 17.8667 118.57 17.8528C118.758 17.832 118.927 17.8147 119.08 17.8008L119.309 19.3506C119.122 19.3922 118.91 19.4234 118.674 19.4442C118.439 19.465 118.213 19.4754 117.998 19.4754C117.021 19.4754 116.268 19.2362 115.741 18.7577C115.221 18.2723 114.961 17.5789 114.961 16.6775V5.16328Z" fill="#09090B"/>
  <path d="M126.404 19.6418C125.302 19.6418 124.355 19.3957 123.565 18.9034C122.774 18.4041 122.164 17.7141 121.734 16.8335C121.311 15.9459 121.1 14.9266 121.1 13.7755C121.1 12.6106 121.311 11.5843 121.734 10.6968C122.164 9.80224 122.764 9.10189 123.534 8.5957C124.31 8.0895 125.208 7.8364 126.228 7.8364C126.9 7.8364 127.538 7.95429 128.141 8.19005C128.752 8.42581 129.289 8.78292 129.754 9.26138C130.225 9.73984 130.593 10.3431 130.856 11.0712C131.127 11.7924 131.262 12.6453 131.262 13.6299V14.2956H122.233V12.7354H130.263L129.431 13.2971C129.431 12.5412 129.306 11.8756 129.057 11.3C128.807 10.7245 128.443 10.2772 127.965 9.95826C127.486 9.63236 126.907 9.4694 126.228 9.4694C125.548 9.4694 124.962 9.63236 124.47 9.95826C123.977 10.2842 123.596 10.7245 123.326 11.2792C123.062 11.827 122.93 12.4407 122.93 13.1202V14.046C122.93 14.8642 123.073 15.5715 123.357 16.1678C123.641 16.7572 124.043 17.2114 124.563 17.5304C125.083 17.8424 125.701 17.9984 126.415 17.9984C126.893 17.9984 127.323 17.9291 127.705 17.7904C128.093 17.6448 128.419 17.4333 128.682 17.1559C128.953 16.8786 129.154 16.5457 129.286 16.1574L131.075 16.4487C130.908 17.0797 130.61 17.6344 130.18 18.1129C129.75 18.5913 129.213 18.9658 128.568 19.2362C127.923 19.5066 127.202 19.6418 126.404 19.6418Z" fill="#09090B"/>
  <path d="M133.259 19.3922V8.02363H135.017V9.79184H135.111C135.319 9.20937 135.676 8.74131 136.182 8.38767C136.688 8.03403 137.285 7.85721 137.971 7.85721C138.124 7.85721 138.283 7.86414 138.449 7.87801C138.616 7.88494 138.748 7.89188 138.845 7.89881V9.73984C138.782 9.71903 138.644 9.69476 138.429 9.66703C138.221 9.63929 137.988 9.62542 137.732 9.62542C137.239 9.62542 136.792 9.7329 136.39 9.94786C135.988 10.1628 135.669 10.4714 135.433 10.8736C135.204 11.2758 135.09 11.7577 135.09 12.3194V19.3922H133.259Z" fill="#09090B"/>
</svg>
